<svg aria-hidden="true" xmlns="http://www.w3.org/2000/svg" overflow="hidden">
    <defs>
         <symbol id="close">
            <path stroke="" d="m1.26 1 13.48 14M1 14.74 15 1.26"/>
        </symbol>
        <symbol id="logo">
            <ellipse cx="25" cy="25.5" fill="#fff" rx="24" ry="24.5" />
            <path fill="#D41443"
                d="M18.514.877C6.943 4.381 0 13.492 0 25.005c0 9.41 4.83 17.62 12.779 21.725 4.125 2.102 4.73.6.905-2.303-2.716-2.202-3.22-3.203-3.22-6.908 0-2.603-.603-4.705-1.509-5.506-1.81-1.502-2.012-5.406-.2-6.808.703-.6 1.408-2.603 1.508-4.405.504-6.607 7.648-12.814 14.792-12.814S39.343 14.193 39.846 20.8c.1 1.802.805 3.805 1.51 4.405 1.81 1.402 1.61 5.306-.202 6.808-.905.801-1.51 2.903-1.51 5.506 0 3.705-.502 4.706-3.219 6.908-4.226 3.304-3.019 4.505 1.71 1.602 6.642-4.105 11.572-13.015 11.572-20.924 0-15.818-16.502-28.633-31.193-24.228Z" />
            <path fill="#D41443"
                d="M19.823 12.49c-1.812.802-3.321 1.803-3.321 2.403 0 1.102 5.434 3.104 8.553 3.104 3.12 0 8.553-2.002 8.553-3.104 0-1.2-6.239-3.904-8.754-3.904-1.007.1-3.321.7-5.031 1.502ZM71.642 17.697c-1.509.4-1.81 1.702-1.81 8.91v8.41h7.143l-.301-8.71c-.302-9.11-.705-9.812-5.032-8.61ZM83.415 18.197c-3.32 1.803-4.528 4.005-4.528 8.31 0 5.907 3.22 8.71 9.157 8.31 4.025-.3 4.427-.601 4.729-3.104.302-2.503.1-2.703-3.019-2.503-3.22.3-3.32.1-3.32-3.204 0-3.303.201-3.504 3.12-3.203 2.414.2 3.32-.2 3.722-1.702.201-1.001 0-2.403-.604-3.004-1.408-1.401-6.64-1.401-9.257.1ZM95.39 18.297c-.303.801-.403 4.706-.202 8.81l.302 7.409h6.54c6.038 0 6.541-.2 6.842-2.303.302-1.902-.1-2.202-3.219-2.202-2.013 0-3.623-.5-3.623-1.001 0-.601 1.409-1.002 3.019-1.002 2.314 0 3.019-.4 3.019-2.002 0-1.602-.705-2.002-3.019-2.002-1.61 0-3.019-.5-3.019-1.001 0-.601 1.308-1.002 2.918-1.002 2.818 0 4.729-2.202 3.522-4.104-.906-1.502-12.477-1.101-13.08.4ZM115.614 17.997c-3.32 1.302-4.628 3.604-4.729 7.809-.101 7.208 2.817 9.711 10.364 9.01 2.918-.2 3.421-.7 3.421-2.803 0-2.202-.402-2.503-3.22-2.202-2.415.2-3.32-.1-3.823-1.702-.906-3.104 1.006-5.607 4.226-5.607 1.912 0 2.918-.6 3.119-1.902.704-3.204-4.427-4.705-9.358-2.603ZM127.991 17.597c-.504.4-.805 4.505-.805 9.11v8.41l3.219-.3c2.516-.2 3.422-.902 3.925-2.804l.603-2.503.805 2.703c.604 2.303 1.308 2.804 3.925 2.804 4.326 0 4.829-.701 3.018-4.205-1.107-2.203-1.308-3.304-.503-4.105 1.308-1.301 1.409-5.707.201-7.609-1.006-1.601-13.08-2.903-14.388-1.501Zm8.25 5.406c0 1.101-.402 2.002-1.006 2.002-.503 0-1.006-.9-1.006-2.002 0-1.101.503-2.003 1.006-2.003.604 0 1.006.902 1.006 2.003ZM146.002 17.697c-.403.3-.704 4.405-.704 9.01v8.31h6.54c6.339 0 6.54-.1 6.54-2.503 0-2.103-.503-2.503-3.018-2.503-1.61 0-3.019-.5-3.019-1.001 0-.601 1.107-1.001 2.516-1.001 1.811 0 2.515-.501 2.515-2.003 0-1.501-.704-2.002-2.515-2.002-1.409 0-2.516-.5-2.516-1.001 0-.6 1.409-1.001 3.019-1.001 2.515 0 3.018-.4 3.018-2.503 0-2.403-.301-2.503-5.836-2.503-3.22 0-6.238.3-6.54.7ZM166.328 17.597c-1.812.5-6.44 13.816-5.535 16.018.805 2.002 5.333 1.802 6.541-.3.905-1.702 1.006-1.702 2.817 0 2.315 2.002 7.346 2.303 7.346.4 0-.6-1.007-4.605-2.315-8.71-2.012-6.607-2.616-7.508-4.729-7.708-1.409 0-3.22.1-4.125.3Zm2.817 9.11c-.302 1.001-.503.4-.503-1.201 0-1.702.201-2.403.503-1.802.201.7.201 2.102 0 3.003ZM180.817 17.697c-.906.3-1.308 3.103-1.308 8.91v8.41h2.918c2.515 0 3.018-.501 3.421-2.804.402-2.603.402-2.603 1.207-.5.403 1.301 1.409 2.303 2.113 2.303.805 0 1.912-1.002 2.415-2.303.805-2.103.906-2.103.906.6.101 2.503.402 2.804 3.22 2.503l3.119-.3.101-8.31c.201-7.708.1-8.309-2.013-8.81-3.22-.8-5.936 1.102-6.842 4.806l-.704 3.304-1.107-3.504c-1.409-4.706-3.522-5.907-7.446-4.305ZM14.087 18.698c-.302.4-.604 1.702-.604 3.003 0 2.303.1 2.303 11.572 2.303 11.47 0 11.571 0 11.571-2.303 0-3.404-.905-3.804-4.125-2.202-3.623 1.902-11.27 1.902-14.892 0-1.61-.801-3.12-1.101-3.522-.801ZM11.169 27.608c-1.61 1.702 1.107 2.403 8.955 2.403h8.452v3.504c0 1.902.503 3.504 1.007 3.504.603 0 1.006-1.502 1.006-3.404 0-3.304.201-3.504 4.025-3.805 2.213-.2 4.025-.8 4.025-1.3 0-1.102-26.363-2.003-27.47-.902Z" />
            <path fill="#D41443"
                d="M13.483 36.418c0 5.506 1.912 6.608 11.572 6.608s11.571-1.102 11.571-6.608c0-2.403-.503-3.404-1.51-3.404-.905 0-1.508.901-1.508 2.403 0 5.606-7.648 6.107-8.755.6-.503-2.903-.805-3.003-5.936-3.003h-5.434v3.404ZM19.722 47.731c.604 3.204 10.867 2.904 10.867-.2 0-1.101-1.308-1.502-5.635-1.502-4.729 0-5.534.3-5.232 1.702Z" />
        </symbol>

        <symbol id="milkglass">
            <path fill="#FFA5BA"
                d="M12.645.225c-.546.293-.863.879-.863 1.572.01 1.27.326 2.432.96 3.437l.277.46-.527.595c-.595.664-.739.908-1.007 1.7-.221.644-.24 1.816-.048 2.47.671 2.246 2.897 3.545 5.074 2.969.739-.196 1.19-.44 1.88-1.026l.586-.488.547.274c.307.156.825.38 1.16.507l.595.215v1.094c0 1.728.355 2.754 1.266 3.682.912.927 2.341 1.406 3.579 1.191.882-.156 1.745-.596 2.33-1.191.912-.928 1.267-1.954 1.267-3.682V12.91l.604-.215c.326-.127.845-.351 1.152-.508l.546-.273.585.488c.691.586 1.142.83 1.88 1.026 2.178.576 4.404-.723 5.075-2.969.192-.654.173-1.826-.048-2.47-.268-.792-.412-1.036-1.007-1.7l-.527-.596.278-.459c.633-1.005.95-2.168.96-3.437 0-.693-.318-1.28-.864-1.572L37.942 0H13.058l-.413.225ZM35.67 3.28c0 .03-.279.489-.624 1.035-1.017 1.612-.978 1.963.374 3.39.49.517.94 1.034 1.008 1.151.364.723-.365 1.622-1.17 1.436-.193-.04-.615-.38-1.229-.986-1.228-1.211-1.65-1.348-2.59-.81-1.084.624-2.465 1.259-3.137 1.444-.95.274-1.276.479-1.525.996-.201.4-.22.567-.22 2.13 0 1.923-.078 2.236-.624 2.5-.394.195-.47.195-.864 0-.547-.264-.623-.577-.623-2.5 0-1.563-.02-1.73-.211-2.13-.26-.507-.585-.722-1.535-.996-.825-.234-2.043-.771-2.715-1.21-.633-.41-1.19-.567-1.63-.489-.289.059-.576.283-1.344 1.035-.633.616-1.084.977-1.276 1.016-.796.186-1.525-.723-1.16-1.436.067-.117.518-.634 1.007-1.152 1.352-1.426 1.39-1.777.374-3.389-.345-.546-.624-1.005-.624-1.035 0-.039 4.576-.058 10.169-.058 5.593 0 10.169.02 10.169.058ZM9.758 20.635c-.49.332-.758.8-.758 1.318 0 .352 4.873 26.445 5.046 26.992.086.303.441.664.815.86.355.195.605.195 10.639.195 10.034 0 10.284 0 10.639-.195.374-.196.729-.557.815-.86.173-.547 5.046-26.64 5.046-26.992 0-.517-.269-.986-.758-1.318l-.326-.225H10.084l-.326.225Zm28.453 3.554c-.096.782-.653 2.48-1.065 3.252-2.005 3.711-5.804 5.967-10.514 6.23-3.559.206-6.571-.517-9.094-2.177a10.954 10.954 0 0 1-3.54-3.808c-.48-.85-1.113-2.676-1.209-3.497l-.067-.556h25.556l-.067.556ZM15.859 34.248c4.115 2.774 10.264 3.506 15.445 1.826 1.727-.556 3.492-1.494 4.969-2.636.432-.342.46-.342.412-.128-.028.127-.594 3.116-1.256 6.631-.662 3.516-1.218 6.494-1.247 6.612l-.048.224H16.866l-.048-.224c-.029-.117-.585-3.096-1.247-6.612-.662-3.515-1.228-6.504-1.256-6.63-.048-.215-.02-.215.412.127.25.195.768.556 1.132.81Z" />
        </symbol>

        <symbol id="applebowl">
            <path fill="#FFA5BA"
                d="M46.29 33.454c-2.018-.716-3.72-.537-5.065.028.226-1.37.735-2.862 1.827-3.876a1.664 1.664 0 1 0-2.263-2.44c-1.92 1.782-2.665 4.295-2.928 6.377a6.339 6.339 0 0 0-1.653-.486l2.953-15.359a1.663 1.663 0 0 0-1.633-1.978h-.32c.147-.782.221-1.558.215-2.297-.025-3.115-1.411-5.461-3.709-6.276-2.202-.782-4.046-.547-5.48.103.228-1.525.773-3.224 2.003-4.366a1.664 1.664 0 1 0-2.263-2.44c-2.063 1.915-2.836 4.634-3.096 6.854-1.149-.543-2.569-.822-4.233-.516-1.71-2.455-4.082-3.586-6.39-3.033-2.267.544-3.684 1.742-4.532 3.065-.64-1.405-1.112-3.127-.706-4.743a1.664 1.664 0 0 0-3.227-.812c-.686 2.728.148 5.43 1.14 7.434-1.588.215-3.309 1.015-4.764 2.916-.903 1.18-1.208 2.653-.931 4.218a1.663 1.663 0 0 0-1.052 1.871L6.134 48.65c.15.784.836 1.35 1.634 1.35h23.808c.797 0 1.483-.566 1.634-1.35l.058-.304c.449.309.93.568 1.448.76 1.979.737 3.823.435 4.756.185.494.132 1.242.279 2.131.279.791 0 1.693-.117 2.625-.464 3.688-1.374 5.648-5.999 5.618-9.653-.023-2.975-1.352-5.218-3.555-5.999ZM35.43 19.048c-.767 7.352-6.957 12.358-15.58 12.358-8.623 0-14.814-5.006-15.58-12.358h31.16ZM25.05 11.742c.288.545.838.886 1.454.886.617 0 1.166-.341 1.454-.886a4.113 4.113 0 0 1 1.202-1.214c.983-.637 2.109-.718 3.442-.245 1.329.471 1.487 2.372 1.493 3.167.006.724-.1 1.502-.297 2.27H22.663c.368-1.859.147-3.894-.452-5.733a3.306 3.306 0 0 1 1.636.541 4.116 4.116 0 0 1 1.202 1.214Zm-20.242 1.89c.86-1.123 1.848-1.67 3.02-1.67h.003c.891 0 1.588.324 1.666.362.533.296 1.17.269 1.685-.058.518-.33.797-.925.752-1.536-.009-.12-.18-2.959 3.099-3.746 1.37-.33 2.54 1.178 2.978 1.84 1.262 1.908 1.909 4.857 1.214 6.896H4.618c-.22-.692-.28-1.474.19-2.088Zm4.335 33.04L5.845 29.52c.216.207.438.41.668.607 3.45 2.971 8.186 4.607 13.336 4.607s9.887-1.636 13.336-4.607c.08-.069.16-.14.238-.21l-.674 3.505c-.032.01-.063.02-.095.032-2.204.782-3.533 3.024-3.556 5.999-.015 1.82.464 3.88 1.403 5.659l-.3 1.56H9.143Zm33.923-.684c-1.474.549-2.939.027-2.993.007a1.63 1.63 0 0 0-1.2 0c-.015.006-1.5.55-2.995-.007-2.09-.779-3.473-3.994-3.453-6.509.006-.727.148-2.466 1.341-2.889a4.381 4.381 0 0 1 1.467-.273c1.73 0 2.59 1.269 2.785 1.6.287.547.836.89 1.454.89s1.168-.343 1.455-.89c.244-.414 1.526-2.293 4.252-1.327 1.192.423 1.334 2.161 1.34 2.89.02 2.514-1.363 5.73-3.453 6.508Z" />
        </symbol>

        <symbol id="heart">
            <path
                d="M9.57454 0.108157C5.00889 1.06473 1.46425 4.816 0.308394 9.91772C-0.115422 11.6996 -0.0961576 15.132 0.327658 17.0826C1.27161 21.4154 3.37142 25.2604 6.68489 28.599C9.6516 31.6 12.2523 33.4194 16.3749 35.3138L18.5325 36.3266V43.1539V50H19.6883H20.8442V43.5478V37.0769L21.4221 37.2457C21.7496 37.3395 22.2505 37.3395 22.578 37.2457L23.1559 37.0769V43.5478V50H24.3118H25.4676V43.1539V36.3079L27.5289 35.3701C31.5166 33.5319 34.4063 31.5438 37.2189 28.6928C41.7075 24.135 43.9999 18.9583 43.9999 13.3314C44.0192 7.16054 40.7828 2.1526 35.697 0.445771C34.6182 0.0706445 34.0595 0.0143756 32.0175 0.0331319C29.8792 0.0518882 29.3975 0.126914 27.7793 0.633335C25.8722 1.25229 24.0035 2.22762 22.7706 3.24046L22.0578 3.84067L21.0176 3.07166C18.3398 1.10224 15.6043 0.14567 12.3871 0.0143756C11.2698 -0.0231371 9.99836 0.0143756 9.57454 0.108157ZM13.9668 2.43394C14.7759 2.58399 15.874 2.90285 16.4519 3.12793C17.6848 3.63435 19.7461 4.92853 20.5552 5.69754C21.8074 6.87919 22.1542 6.86044 23.5797 5.58501C25.8144 3.55932 29.4168 2.17135 32.3835 2.17135C36.4098 2.17135 40.0893 5.32242 41.2644 9.76767C41.4763 10.5554 41.6689 11.8309 41.6882 12.5999C41.7653 14.2879 41.7075 14.3442 39.0875 15.3383C36.9684 16.1448 35.1961 16.5387 32.1523 16.8763C30.2066 17.1014 29.8021 17.2139 29.2049 17.6453C27.972 18.5644 27.7793 19.2396 27.7793 23.0659C27.7793 25.9356 27.7408 26.4796 27.4518 26.7797C27.0473 27.2298 26.3345 27.2111 25.8529 26.7421C25.4869 26.3858 25.4676 26.1232 25.4676 22.3344C25.4676 18.133 25.352 17.4203 24.5622 16.5762C24.3888 16.3887 23.021 15.6572 21.5377 14.9257C19.8617 14.1379 18.1857 13.1626 17.184 12.3936C12.3486 8.77358 10.2103 7.74198 6.24181 7.12303C5.10521 6.93546 4.142 6.76666 4.10347 6.7479C3.93009 6.6166 4.97036 5.2849 5.91432 4.45963C8.14898 2.47146 10.6919 1.83374 13.9668 2.43394ZM7.59031 9.67389C9.55528 10.1616 11.7707 11.2682 13.7934 12.7687C14.6411 13.3876 15.7199 14.1754 16.2015 14.5318C17.4922 15.4883 19.6305 16.6888 21.2487 17.364C22.0386 17.7016 22.7899 18.0955 22.9247 18.2643C23.0981 18.4706 23.1559 19.6523 23.1559 22.597C23.1559 26.1419 23.2137 26.7421 23.5219 27.3986C24.1576 28.7491 25.1787 29.368 26.7391 29.368C27.7408 29.368 28.4343 29.0679 29.1664 28.2989C29.9947 27.4549 30.0911 26.9297 30.0911 23.3473C30.0911 19.2771 30.0525 19.3522 32.3257 19.1646C34.6374 18.9583 37.5078 18.3393 39.415 17.6453C40.3782 17.289 41.2066 17.0451 41.2451 17.1014C41.457 17.3077 40.0122 20.984 39.1646 22.4094C37.8161 24.7165 36.7565 26.0294 34.7145 27.9426C31.7478 30.7185 27.6638 33.1005 23.5027 34.526L22 35.0512L20.5167 34.526C16.0666 33.0255 12.1367 30.6435 8.97735 27.5862C4.97036 23.7411 2.87055 19.671 2.35041 14.8506C2.15777 13.05 2.44674 9.95523 2.88981 9.22373C3.04393 8.96115 5.79873 9.24249 7.59031 9.67389Z"
                fill="#FFA5BA" />
        </symbol>

        <symbol id="hrdot1">
            <circle cx="36" cy="6" r="6" fill="#D9D9D9" />
            <path
                d="M11.8497 6.28727C12.0672 6.06411 12.0462 5.72207 11.8028 5.5235L6.43981 1.14624C6.19638 0.947669 5.80611 0.951828 5.56781 1.15561L0.186634 5.75688C-0.0516656 5.96066 -0.0633615 6.30227 0.160739 6.51955L0.295652 6.65062C0.519479 6.86791 0.88127 6.89381 1.10322 6.70831L1.50538 6.37236V11.2907C1.50538 11.5924 1.7675 11.8367 2.09076 11.8367H4.18836C4.51162 11.8367 4.77374 11.5924 4.77374 11.2907V7.84984H7.44925V11.2907C7.4446 11.5922 7.6759 11.8365 7.99916 11.8365H10.2221C10.5453 11.8365 10.8075 11.5922 10.8075 11.2905V6.44161C10.8075 6.44161 10.9186 6.5324 11.0556 6.64474C11.1924 6.75687 11.4797 6.66697 11.6972 6.44358L11.8497 6.28727Z"
                fill="#D31342" />
            <circle cx="66" cy="6" r="6" fill="#D9D9D9" />
        </symbol>

        <symbol id="hrdot2">
            <path
                d="M39.8497 6.28727C40.0672 6.06411 40.0462 5.72207 39.8028 5.5235L34.4398 1.14624C34.1964 0.947669 33.8061 0.951828 33.5678 1.15561L28.1866 5.75688C27.9483 5.96066 27.9366 6.30227 28.1607 6.51955L28.2957 6.65062C28.5195 6.86791 28.8813 6.89381 29.1032 6.70831L29.5054 6.37236V11.2907C29.5054 11.5924 29.7675 11.8367 30.0908 11.8367H32.1884C32.5116 11.8367 32.7737 11.5924 32.7737 11.2907V7.84984H35.4493V11.2907C35.4446 11.5922 35.6759 11.8365 35.9992 11.8365H38.2221C38.5453 11.8365 38.8075 11.5922 38.8075 11.2905V6.44161C38.8075 6.44161 38.9186 6.5324 39.0556 6.64474C39.1924 6.75687 39.4797 6.66697 39.6972 6.44358L39.8497 6.28727Z"
                fill="#D31342" />
            <circle cx="64" cy="6" r="6" fill="#D9D9D9" />
            <circle cx="6" cy="6" r="6" fill="#D9D9D9" />
        </symbol>

        <symbol id="hrdot3">
            <path
                d="M69.8497 6.28727C70.0672 6.06411 70.0462 5.72207 69.8028 5.5235L64.4398 1.14624C64.1964 0.947669 63.8061 0.951828 63.5678 1.15561L58.1866 5.75688C57.9483 5.96066 57.9366 6.30227 58.1607 6.51955L58.2957 6.65062C58.5195 6.86791 58.8813 6.89381 59.1032 6.70831L59.5054 6.37236V11.2907C59.5054 11.5924 59.7675 11.8367 60.0908 11.8367H62.1884C62.5116 11.8367 62.7737 11.5924 62.7737 11.2907V7.84984H65.4493V11.2907C65.4446 11.5922 65.6759 11.8365 65.9992 11.8365H68.2221C68.5453 11.8365 68.8075 11.5922 68.8075 11.2905V6.44161C68.8075 6.44161 68.9186 6.5324 69.0556 6.64474C69.1924 6.75687 69.4797 6.66697 69.6972 6.44358L69.8497 6.28727Z"
                fill="#D31342" />
            <circle cx="6" cy="6" r="6" fill="#D9D9D9" />
            <circle cx="35" cy="6" r="6" fill="#D9D9D9" />
        </symbol>

        <symbol id="quotes">
            <path
                d="M40.0179 2.59234e-06C42.4286 2.80309e-06 44.7054 0.650413 46.8482 1.95122C48.9911 3.25204 50.7321 5.12196 52.0714 7.56098C53.3571 10 54 12.8726 54 16.1789C54 19.4851 53.1964 22.71 51.5893 25.8537C51.0536 26.9919 50.0893 28.4553 48.6964 30.2439C47.25 32.0325 45.9107 33.5772 44.6786 34.878L39.6161 40L36 33.9837C38.5179 32.4119 40.7411 30.4607 42.6696 28.1301C44.5982 25.8537 45.5625 23.7669 45.5625 21.8699C45.5625 20.8943 45.3482 20.1084 44.9196 19.5122C43.0446 20.8672 40.9554 21.5447 38.6518 21.5447C36.9911 21.5447 35.4107 21.0298 33.9107 20C32.3571 19.0244 31.125 17.7236 30.2143 16.0976C29.25 14.5257 28.7679 12.8997 28.7679 11.2195C28.7679 9.32249 29.3304 7.50678 30.4554 5.77236C31.5268 4.03794 32.9464 2.62873 34.7143 1.54472C36.4286 0.51491 38.1964 2.43311e-06 40.0179 2.59234e-06ZM11.1696 7.03482e-08C13.5804 2.81099e-07 15.8571 0.65041 18 1.95122C20.1429 3.25203 21.8839 5.12195 23.2232 7.56098C24.5089 10 25.1518 12.8726 25.1518 16.1789C25.1518 18.5095 24.8571 20.5962 24.2679 22.439C23.6786 24.336 22.6607 26.3144 21.2143 28.374C19.8214 30.3252 18.5089 31.9512 17.2768 33.252C16.0446 34.607 13.9018 36.8564 10.8482 40L7.23214 33.9837C9.75 32.4119 11.9732 30.4607 13.9018 28.1301C15.8304 25.8537 16.7946 23.7669 16.7946 21.8699C16.7946 20.8943 16.5804 20.1084 16.1518 19.5122C14.2768 20.8672 12.1875 21.5447 9.88393 21.5447C8.22321 21.5447 6.64285 21.0298 5.14285 20C3.58928 19.0244 2.35714 17.7236 1.44643 16.0976C0.482142 14.5257 -1.44552e-06 12.8997 -1.29863e-06 11.2195C-1.13278e-06 9.32249 0.535712 7.50677 1.60714 5.77236C2.67857 4.03794 4.09821 2.62873 5.86607 1.54472C7.58036 0.514908 9.34821 -8.88862e-08 11.1696 7.03482e-08Z"
                fill="#E1E1E1" />
        </symbol>

        <symbol id="arrowright">
            <circle cx="25.5" cy="25.5" r="25.5" fill="#E1E1E1" />
            <path d="M18.8889 25.5001H24.5556H30.2222M30.2222 25.5001L25.5 20.7778M30.2222 25.5001L25.5 30.2223"
                stroke="#D51845" stroke-width="2.5" stroke-linecap="round" stroke-linejoin="round" />
        </symbol>
        <symbol id="arrowtop">
            <ellipse cx="25.5" cy="24" fill="" rx="25.5" ry="24"/>
            <path fill="#D6214C" d="M25.53 17.47a.75.75 0 0 0-1.06 0l-4.773 4.773a.75.75 0 0 0 1.06 1.06L25 19.061l4.243 4.242a.75.75 0 0 0 1.06-1.06L25.53 17.47ZM25.75 30v-9.632h-1.5V30h1.5Zm0-9.632V18h-1.5v2.368h1.5Z"
            stroke="#D51845" stroke-width="1.2" stroke-linecap="round" stroke-linejoin="round" />
        </symbol>
        <symbol id="arrowdown">
            <ellipse cx="25.5" cy="24" fill="" rx="25.5" ry="24" transform="rotate(-180 25.5 24)"/>
            <path fill="#D6214C" d="M25.47 30.53a.75.75 0 0 0 1.06 0l4.773-4.773a.75.75 0 0 0-1.06-1.06L26 28.939l-4.243-4.242a.75.75 0 0 0-1.06 1.06l4.773 4.773ZM25.25 18v9.632h1.5V18h-1.5Zm0 9.632V30h1.5v-2.368h-1.5Z"
            stroke="#D51845" stroke-width="1.2" stroke-linecap="round" stroke-linejoin="round" />
        </symbol>

        <symbol id="telegram">
            <g clip-path="url(#clip0_70753_10)">
                <circle cx="17" cy="17" r="17" fill="#FEA5BB" />
                <path
                    d="M13.6715 19.5238L13.3341 23.9538C13.8169 23.9538 14.026 23.7602 14.2768 23.5278L16.5404 21.5088L21.2308 24.7146C22.091 25.162 22.6971 24.9264 22.9291 23.976L26.0079 10.5116L26.0087 10.5108C26.2816 9.32401 25.5489 8.85991 24.7108 9.15106L6.61382 15.6175C5.37874 16.0649 5.39744 16.7075 6.40387 16.9987L11.0305 18.3418L21.7773 12.0658C22.2831 11.7532 22.743 11.9261 22.3647 12.2387L13.6715 19.5238Z"
                    fill="white" />
            </g>
            <defs>
                <clipPath id="clip0_70753_10">
                    <rect width="34" height="34" fill="white" />
                </clipPath>
            </defs>
        </symbol>

        <symbol id="github">
            <circle cx="17" cy="17" r="17" fill="#FEA5BB" />
            <path
                d="M17 7C11.5074 7 7 11.5074 7 17C7 21.687 10.2889 25.9447 14.6562 27V23.6916C14.2235 23.7863 13.8253 23.7891 13.3847 23.6592C12.7938 23.4848 12.3136 23.0912 11.9571 22.4909C11.7299 22.1076 11.3272 21.6919 10.9072 21.7224L10.8042 20.5551C11.7125 20.4773 12.4984 21.1086 12.9648 21.8923C13.172 22.2408 13.4105 22.4451 13.7166 22.5354C14.0125 22.6226 14.3302 22.5807 14.7003 22.45C14.7933 21.7089 15.1328 21.4315 15.3893 21.0408V21.0402C12.7846 20.6517 11.7466 19.2699 11.3346 18.1792C10.7886 16.731 11.0816 14.9218 12.047 13.7784C12.0658 13.7561 12.0996 13.6978 12.0865 13.6571C11.6439 12.32 12.1833 11.2139 12.2031 11.0965C12.714 11.2476 12.797 10.9445 14.4222 11.9319L14.7031 12.1007C14.8206 12.1707 14.7837 12.1308 14.9012 12.1219C15.5797 11.9376 16.295 11.8358 16.9998 11.8267C17.71 11.8358 18.4207 11.9376 19.1274 12.1294L19.2183 12.1385C19.2104 12.1373 19.243 12.1328 19.2978 12.1001C21.328 10.8704 21.2551 11.2723 21.7995 11.0953C21.8192 11.2128 22.3514 12.3369 21.9135 13.6571C21.8544 13.839 23.6736 15.5048 22.6653 18.1787C22.2533 19.2699 21.2154 20.6517 18.6107 21.0402V21.0408C18.9446 21.5497 19.3457 21.8204 19.3436 22.8702V27C23.7111 25.9447 26.9998 21.687 26.9998 17C27 11.5074 22.4926 7 17 7V7Z"
                fill="white" />
        </symbol>

        <symbol id="facebook">
            <g clip-path="url(#clip0_70753_3)">
                <path
                    d="M17 34C26.3888 34 34 26.3888 34 17C34 7.61116 26.3888 0 17 0C7.61116 0 0 7.61116 0 17C0 26.3888 7.61116 34 17 34Z"
                    fill="#FEA5BB" />
                <path
                    d="M21.7235 16.9804H18.9502V27.2001H14.7484V16.9804H12.75V13.3888H14.7484V11.0646C14.7484 9.40261 15.5333 6.80005 18.9876 6.80005L22.1 6.81315V10.2994H19.8417C19.4713 10.2994 18.9505 10.4856 18.9505 11.2784V13.3922H22.0906L21.7235 16.9804Z"
                    fill="white" />
            </g>
            <defs>
                <clipPath id="clip0_70753_3">
                    <rect width="34" height="34" fill="white" />
                </clipPath>
            </defs>
        </symbol>
        <symbol id="house">
            <path
                d="M12.2399 5.77539C12.4646 5.53163 12.4429 5.15801 12.1914 4.94111L6.65187 0.159738C6.40043 -0.0571627 5.99731 -0.052619 5.75117 0.169981L0.19278 5.19603C-0.053367 5.41863 -0.065448 5.79177 0.166032 6.02912L0.305389 6.17228C0.536586 6.40963 0.910291 6.43793 1.13955 6.2353L1.55495 5.86834V11.2407C1.55495 11.5703 1.82571 11.8372 2.15961 11.8372H4.32629C4.66019 11.8372 4.93095 11.5703 4.93095 11.2407V7.48221H7.69456V11.2407C7.68976 11.5701 7.92867 11.8369 8.26258 11.8369H10.5587C10.8926 11.8369 11.1634 11.5701 11.1634 11.2405V5.94398C11.1634 5.94398 11.2781 6.04315 11.4197 6.16587C11.561 6.28835 11.8577 6.19014 12.0824 5.94614L12.2399 5.77539Z"
                fill="#D31342" />
        </symbol>
        <symbol id="-">
            <path stroke="#D41443" d="M0 1h20" />
        </symbol>
        <symbol id="ellipse">
            <ellipse cx="230" cy="230" fill="#FFA5BA" rx="210" ry="210" />
        </symbol>
        <symbol id="ellipse3">
            <ellipse cx="270" cy="270" fill="#FFA5BA" rx="270" ry="270" />
        </symbol>
        <symbol id="mayor-que">
                <path stroke="#D41443" stroke-linecap="round" stroke-linejoin="round" stroke-width="2"
                    d="m1.107 1 5.258 4-5.258 4" />
        </symbol>

        <symbol id="homedots">
              <circle cx="3" cy="3" r="3" fill="#FFFFFF"/>
              <circle cx="13" cy="3" r="3" fill="#FFFFFF"/>
              <circle cx="23" cy="3" r="3" fill="#FFFFFF"/>
        </symbol>
       
    </defs>
</svg>